<svg id="Capa_1" data-name="Capa 1" xmlns="http://www.w3.org/2000/svg" viewBox="0 0 28.97 27.86"><defs><style>.cls-1,.cls-11,.cls-2,.cls-7{fill:none;}.cls-1,.cls-3{stroke:#1d1d1b;}.cls-1,.cls-11,.cls-2,.cls-3{stroke-miterlimit:10;}.cls-1,.cls-2{stroke-width:0.25px;}.cls-2{stroke:#e5212d;}.cls-3{fill:#f4d4ca;}.cls-11,.cls-3{stroke-width:0.1px;}.cls-4{font-size:2.66px;}.cls-4,.cls-5,.cls-8{fill:#1d1d1b;}.cls-4,.cls-5{font-family:Malvie, Malvie;}.cls-5{font-size:2.75px;}.cls-6{fill:#582919;}.cls-9{fill:#fff;}.cls-10{fill:#925040;}.cls-11{stroke:#291c19;}</style></defs><title>logo</title><circle class="cls-1" cx="13.15" cy="13.77" r="8.97"/><circle class="cls-1" cx="13.15" cy="13.72" r="7.28"/><path class="cls-2" d="M12.46,15.57" transform="translate(-1.14 -0.27)"/><polygon class="cls-3" points="14.75 15.46 18.35 14.73 23 13.78 18.37 12.75 14.88 11.97 14.09 8.09 13.14 3.44 12.11 8.07 11.36 11.88 7.67 12.63 3.02 13.58 7.65 14.62 11.37 15.45 12.04 18.71 12.98 23.36 14.02 18.73 14.75 15.46"/><text class="cls-4" transform="translate(0 14.67)">W</text><text class="cls-4" transform="translate(11.98 26.59)">S</text><text class="cls-5" transform="translate(23.78 14.71)">E</text><text class="cls-5" transform="translate(12.08 2.34)">N</text><polyline class="cls-6" points="13.06 14.2 12.98 23.36 11.29 14.89 13.06 14.2"/><polyline class="cls-6" points="11.94 13.59 3.02 13.58 11.06 11.94 11.94 13.59"/><polyline class="cls-6" points="13.11 12.34 13.14 3.53 14.78 11.48 13.14 12.31"/><polyline class="cls-6" points="14.41 13.58 22.93 13.79 14.95 15.44 14.41 13.58"/><path class="cls-7" d="M2.55,16.89" transform="translate(-1.14 -0.27)"/><path class="cls-8" d="M2.48,16c.26-.27.62-.61.62-.73s.24,0,.26.1a10,10,0,0,0-.07,1.07c-.17.07-.31.12-.34,0a.54.54,0,0,1,0-.2h-.3c-.1.12-.16.21-.13.27-.17.07-.32,0-.31-.12a.48.48,0,0,1,.13-.21c-.09-.06,0-.14,0-.2Zm.58-.22-.28.29.2,0Z" transform="translate(-1.14 -0.27)"/><path class="cls-8" d="M3.12,18.42a8,8,0,0,0,.33-1,.43.43,0,0,1,.25.07h0a1.24,1.24,0,0,1,.22.63,2.2,2.2,0,0,0,.21-.7c.14,0,.27.05.27.11,0,.33-.36.87-.29,1.05-.13.05-.25,0-.29,0a2.53,2.53,0,0,1-.19-.67c-.1.28-.26.57-.21.7C3.27,18.6,3.12,18.57,3.12,18.42Z" transform="translate(-1.14 -0.27)"/><path class="cls-8" d="M4.55,19.35c.08,0,.26,0,.27.13a.44.44,0,0,1,.38-.11c.21.06.29.33.2.61a.89.89,0,0,1-1,.59.2.2,0,0,1-.18-.19C4.2,20.24,4.42,19.88,4.55,19.35Zm0,1A.65.65,0,0,0,5,20c.09-.17.08-.44-.11-.39a.42.42,0,0,0-.23.23C4.63,20.07,4.55,20.28,4.53,20.37Z" transform="translate(-1.14 -0.27)"/><path class="cls-8" d="M5.4,22.34c0-.16.24-.6.29-.82l-.07,0a.16.16,0,0,1,0-.25c.16-.07.57,0,.75,0,0,.13-.06.23-.21.24a1.85,1.85,0,0,1-.29,0,.08.08,0,0,1,0,0,.63.63,0,0,1-.07.29l.32,0a.13.13,0,0,1-.07.17.73.73,0,0,1-.31,0,2.21,2.21,0,0,0-.11.33,4,4,0,0,1,.47-.09A.23.23,0,0,1,6,22.5a3.21,3.21,0,0,1-.41,0C5.46,22.49,5.4,22.45,5.4,22.34Z" transform="translate(-1.14 -0.27)"/><path class="cls-8" d="M8.22,23.27a.69.69,0,0,1-.46.45A.43.43,0,0,0,8,24c0,.13-.28.19-.37.12a.57.57,0,0,1-.13-.33H7.42a.48.48,0,0,0,0,.29c-.17.07-.32,0-.32-.12s.24-.54.37-1.06c.08,0,.21,0,.24.09a.31.31,0,0,1,.22-.09A.33.33,0,0,1,8.22,23.27Zm-.71.3a.53.53,0,0,0,.4-.3.12.12,0,0,0-.13-.17c-.09,0-.14.07-.17.16S7.54,23.47,7.5,23.57Z" transform="translate(-1.14 -0.27)"/><path class="cls-8" d="M9.59,25.49a2.42,2.42,0,0,1-.43,0A.13.13,0,0,1,9,25.33a8.76,8.76,0,0,0,.35-1.1c.14,0,.27.05.27.11a5.33,5.33,0,0,1-.3.95c.2,0,.44-.15.45-.13A.26.26,0,0,1,9.59,25.49Z" transform="translate(-1.14 -0.27)"/><path class="cls-8" d="M11.94,25.18c0,.34-.36.83-.28,1-.17.07-.32,0-.31-.12a.15.15,0,0,1,0,0,.55.55,0,0,1-.36.18c-.16,0-.28-.15-.2-.35a1.74,1.74,0,0,0,.22-.79.25.25,0,0,1,.32.09c.06.2-.12.44-.19.66,0,0,0,.14,0,.14s.31-.26.39-.46a1.38,1.38,0,0,0,.12-.45C11.81,25.08,11.94,25.11,11.94,25.18Z" transform="translate(-1.14 -0.27)"/><path class="cls-8" d="M16.73,25.71l0,0c0,.16-.32.72-.24.91-.17.07-.32,0-.31-.12s.25-.63.29-.84a.54.54,0,0,0-.33.06.16.16,0,0,1,.08-.25c.16-.07.72,0,.89,0a.2.2,0,0,1-.2.26Z" transform="translate(-1.14 -0.27)"/><polygon class="cls-9" points="13.14 13.53 11.84 13.54 9.07 10.61 6.69 8.09 9.63 9.93 13.14 12.31 13.14 13.53"/><polygon class="cls-9" points="13.14 13.52 11.84 13.53 9.12 16.51 6.79 19.07 9.69 17.18 13.13 14.85 13.14 13.52"/><polygon class="cls-9" points="13.11 13.58 14.41 13.54 17.06 10.51 19.34 7.9 16.48 9.85 13.1 12.31 13.11 13.58"/><polygon class="cls-9" points="13.11 13.54 14.41 13.58 17.06 16.61 19.34 19.22 16.48 17.27 13.11 14.85 13.11 13.54"/><polygon class="cls-10" points="6.89 18.99 11.81 13.56 13.11 13.55 6.89 18.99"/><polygon class="cls-10" points="13.14 13.62 19.19 19.14 13.08 14.88 13.14 13.62"/><polygon class="cls-10" points="6.74 8.19 11.79 13.52 13.09 13.53 6.74 8.19"/><polygon class="cls-10" points="13.12 13.56 19.17 8.04 13.06 12.29 13.12 13.56"/><polygon class="cls-11" points="13.11 13.55 11.8 13.57 9.04 10.64 6.66 8.12 9.59 9.96 13.11 12.34 13.11 13.55"/><polygon class="cls-11" points="13.11 13.55 11.81 13.56 9.09 16.54 6.76 19.1 9.66 17.21 13.1 14.88 13.11 13.55"/><polygon class="cls-11" points="13.08 13.61 14.38 13.58 17.03 10.54 19.31 7.93 16.45 9.88 13.07 12.34 13.08 13.61"/><polygon class="cls-11" points="13.08 13.58 14.38 13.61 17.03 16.64 19.31 19.25 16.45 17.3 13.08 14.88 13.08 13.58"/></svg>